<svg width="20" height="16" viewBox="0 0 20 16" fill="none" xmlns="http://www.w3.org/2000/svg">
<path d="M6.13438 14H3.23125V4.65312H6.13438V14ZM4.68125 3.37812C3.75312 3.37812 3 2.60938 3 1.68125C3 1.23438 3.17812 0.809375 3.49375 0.49375C3.80938 0.178125 4.2375 0 4.68125 0C5.125 0 5.55313 0.178125 5.86875 0.49375C6.18438 0.809375 6.3625 1.2375 6.3625 1.68125C6.3625 2.60938 5.60938 3.37812 4.68125 3.37812ZM16.9969 14H14.1V9.45C14.1 8.36562 14.0781 6.975 12.5906 6.975C11.0813 6.975 10.85 8.15312 10.85 9.37187V14H7.95V4.65312H10.7344V5.92812H10.775C11.1625 5.19375 12.1094 4.41875 13.5219 4.41875C16.4594 4.41875 17 6.35313 17 8.86563V14H16.9969Z" fill="#4F008C"/>
</svg>
